<svg xmlns="http://www.w3.org/2000/svg" xmlns:xlink="http://www.w3.org/1999/xlink" width="120" zoomAndPan="magnify" viewBox="0 0 90 89.999999" height="120" preserveAspectRatio="xMidYMid meet" version="1.0"><defs><clipPath id="e8303c6640"><path d="M 1.457031 13.648438 L 44 13.648438 L 44 76.648438 L 1.457031 76.648438 Z M 1.457031 13.648438 " clip-rule="nonzero"/></clipPath><clipPath id="96e39cc112"><path d="M 46 13.648438 L 88.457031 13.648438 L 88.457031 76.648438 L 46 76.648438 Z M 46 13.648438 " clip-rule="nonzero"/></clipPath></defs><g clip-path="url(#e8303c6640)"><path fill="#75e6da" d="M 31.25 22.179688 C 32.753906 22.179688 34.03125 23.054688 34.550781 24.335938 L 43.363281 24.335938 L 43.363281 22.179688 C 43.363281 17.808594 40.058594 14.074219 35.710938 13.84375 C 32.40625 13.726562 29.566406 15.648438 28.292969 18.449219 C 28.058594 18.972656 27.421875 19.207031 26.902344 19.207031 C 22.4375 19.207031 18.84375 22.820312 18.84375 27.308594 C 18.84375 27.71875 18.84375 28.066406 18.960938 28.359375 C 19.078125 29.40625 18.554688 30.398438 17.570312 30.808594 C 17.164062 30.980469 16.875 31.214844 16.46875 31.449219 L 7.890625 31.449219 C 7.308594 30.222656 6.382812 29.292969 4.933594 29.292969 C 3.019531 29.292969 1.457031 30.867188 1.457031 32.789062 C 1.457031 34.714844 3.019531 36.289062 4.933594 36.289062 C 6.324219 36.289062 7.308594 35.296875 7.890625 34.128906 L 33.101562 34.128906 C 33.625 32.964844 34.898438 32.089844 36.289062 32.089844 C 38.203125 32.089844 39.882812 33.605469 39.882812 35.585938 C 39.882812 37.511719 38.203125 39.085938 36.289062 39.085938 C 34.898438 39.085938 33.625 38.210938 33.101562 37.046875 L 11.832031 37.046875 C 11.195312 38.328125 10.960938 39.726562 10.960938 41.183594 C 10.960938 44.507812 12.46875 47.363281 14.789062 49.402344 C 14.902344 49.519531 15.019531 49.8125 15.191406 49.929688 L 8.933594 49.929688 C 8.410156 48.761719 7.136719 47.886719 5.628906 47.886719 C 3.714844 47.886719 2.152344 49.402344 2.152344 51.386719 C 2.152344 53.308594 3.660156 54.882812 5.628906 54.882812 C 7.136719 54.882812 8.410156 54.007812 8.933594 52.84375 L 30.148438 52.84375 C 30.667969 51.5625 31.828125 50.6875 33.335938 50.6875 C 35.246094 50.6875 36.8125 52.203125 36.8125 54.183594 C 36.8125 56.226562 35.304688 57.800781 33.335938 57.800781 C 31.945312 57.800781 30.667969 56.925781 30.148438 55.640625 L 15.539062 55.640625 C 15.773438 59.78125 18.324219 63.222656 21.800781 65.027344 C 22.554688 65.4375 23.308594 66.078125 23.597656 66.953125 C 24.234375 68.757812 25.511719 70.273438 27.191406 71.324219 C 27.828125 71.730469 28.464844 72.199219 28.871094 72.839844 C 30.554688 75.171875 33.21875 76.570312 36.289062 76.164062 C 40.40625 75.753906 43.421875 72.199219 43.421875 67.941406 L 43.421875 65.144531 L 32.929688 65.144531 C 32.40625 66.425781 31.25 67.300781 29.742188 67.300781 C 27.828125 67.300781 26.261719 65.785156 26.261719 63.804688 C 26.261719 61.878906 27.769531 60.1875 29.742188 60.1875 C 31.132812 60.1875 32.40625 61.0625 32.929688 62.347656 L 43.421875 62.347656 L 43.421875 46.546875 L 26.902344 46.546875 C 26.378906 47.714844 25.105469 48.589844 23.714844 48.589844 C 21.800781 48.589844 20.234375 47.074219 20.234375 45.089844 C 20.234375 43.167969 21.742188 41.59375 23.714844 41.59375 C 25.105469 41.59375 26.378906 42.464844 26.902344 43.632812 L 43.363281 43.632812 L 43.363281 27.074219 L 34.609375 27.074219 C 34.089844 28.359375 32.8125 29.234375 31.304688 29.234375 C 29.394531 29.234375 27.828125 27.71875 27.828125 25.734375 C 27.828125 23.871094 29.335938 22.179688 31.25 22.179688 Z M 31.25 22.179688 " fill-opacity="1" fill-rule="nonzero"/></g><g clip-path="url(#96e39cc112)"><path fill="#75e6da" d="M 58.605469 22.179688 C 57.097656 22.179688 55.824219 23.054688 55.300781 24.335938 L 46.492188 24.335938 L 46.492188 22.179688 C 46.492188 17.808594 49.796875 14.074219 54.144531 13.84375 C 57.445312 13.726562 60.285156 15.648438 61.5625 18.449219 C 61.792969 18.972656 62.429688 19.207031 62.953125 19.207031 C 67.417969 19.207031 71.011719 22.820312 71.011719 27.308594 C 71.011719 27.71875 71.011719 28.066406 70.894531 28.359375 C 70.777344 29.40625 71.300781 30.398438 72.285156 30.808594 C 72.691406 30.980469 72.980469 31.214844 73.386719 31.449219 L 82.023438 31.449219 C 82.601562 30.222656 83.53125 29.292969 84.976562 29.292969 C 86.890625 29.292969 88.457031 30.867188 88.457031 32.789062 C 88.457031 34.714844 86.890625 36.289062 84.976562 36.289062 C 83.585938 36.289062 82.601562 35.296875 82.023438 34.128906 L 56.808594 34.128906 C 56.289062 32.964844 55.011719 32.089844 53.621094 32.089844 C 51.707031 32.089844 50.027344 33.605469 50.027344 35.585938 C 50.027344 37.511719 51.707031 39.085938 53.621094 39.085938 C 55.011719 39.085938 56.289062 38.210938 56.808594 37.046875 L 78.023438 37.046875 C 78.660156 38.328125 78.890625 39.726562 78.890625 41.183594 C 78.890625 44.507812 77.386719 47.363281 75.066406 49.402344 C 74.953125 49.519531 74.835938 49.8125 74.660156 49.929688 L 80.921875 49.929688 C 81.441406 48.761719 82.71875 47.886719 84.226562 47.886719 C 86.136719 47.886719 87.703125 49.402344 87.703125 51.386719 C 87.703125 53.308594 86.195312 54.882812 84.226562 54.882812 C 82.71875 54.882812 81.441406 54.007812 80.921875 52.84375 L 59.707031 52.84375 C 59.1875 51.5625 58.027344 50.6875 56.519531 50.6875 C 54.605469 50.6875 53.042969 52.203125 53.042969 54.183594 C 53.042969 56.226562 54.546875 57.800781 56.519531 57.800781 C 57.910156 57.800781 59.1875 56.925781 59.707031 55.640625 L 74.253906 55.640625 C 74.023438 59.78125 71.472656 63.222656 67.996094 65.027344 C 67.242188 65.4375 66.488281 66.078125 66.199219 66.953125 C 65.5625 68.757812 64.285156 70.273438 62.605469 71.324219 C 61.96875 71.730469 61.332031 72.199219 60.925781 72.839844 C 59.242188 75.171875 56.578125 76.570312 53.503906 76.164062 C 49.390625 75.753906 46.375 72.199219 46.375 67.941406 L 46.375 65.144531 L 56.867188 65.144531 C 57.390625 66.425781 58.546875 67.300781 60.054688 67.300781 C 61.96875 67.300781 63.53125 65.785156 63.53125 63.804688 C 63.53125 61.878906 62.027344 60.1875 60.054688 60.1875 C 58.664062 60.1875 57.390625 61.0625 56.867188 62.347656 L 46.375 62.347656 L 46.375 46.546875 L 62.835938 46.546875 C 63.359375 47.714844 64.632812 48.589844 66.023438 48.589844 C 67.9375 48.589844 69.503906 47.074219 69.503906 45.089844 C 69.503906 43.167969 67.996094 41.59375 66.023438 41.59375 C 64.632812 41.59375 63.359375 42.464844 62.835938 43.632812 L 46.375 43.632812 L 46.375 27.074219 L 55.1875 27.074219 C 55.707031 28.359375 56.984375 29.234375 58.488281 29.234375 C 60.402344 29.234375 61.96875 27.71875 61.96875 25.734375 C 62.027344 23.871094 60.519531 22.179688 58.605469 22.179688 Z M 58.605469 22.179688 " fill-opacity="1" fill-rule="nonzero"/></g></svg>