<svg xmlns="http://www.w3.org/2000/svg" xmlns:xlink="http://www.w3.org/1999/xlink" width="120" zoomAndPan="magnify" viewBox="0 0 90 89.999999" height="120" preserveAspectRatio="xMidYMid meet" version="1.0"><defs><g/><clipPath id="d15f87c691"><path d="M 14.101562 15.261719 L 44 15.261719 L 44 59.511719 L 14.101562 59.511719 Z M 14.101562 15.261719 " clip-rule="nonzero"/></clipPath><clipPath id="5281bf77e2"><path d="M 45 15.261719 L 75.601562 15.261719 L 75.601562 59.511719 L 45 59.511719 Z M 45 15.261719 " clip-rule="nonzero"/></clipPath></defs><rect x="-9" width="108" fill="#ffffff" y="-9" height="107.999999" fill-opacity="1"/><rect x="-9" width="108" fill="#ffffff" y="-9" height="107.999999" fill-opacity="1"/><rect x="-9" width="108" fill="#ffffff" y="-9" height="107.999999" fill-opacity="1"/><g clip-path="url(#d15f87c691)"><path fill="#7c2ae8" d="M 35.160156 21.25 C 36.226562 21.25 37.125 21.867188 37.496094 22.765625 L 43.722656 22.765625 L 43.722656 21.25 C 43.722656 18.179688 41.386719 15.558594 38.316406 15.394531 C 35.980469 15.3125 33.972656 16.664062 33.070312 18.628906 C 32.90625 19 32.457031 19.164062 32.085938 19.164062 C 28.933594 19.164062 26.390625 21.703125 26.390625 24.855469 C 26.390625 25.140625 26.390625 25.386719 26.472656 25.59375 C 26.554688 26.328125 26.1875 27.027344 25.492188 27.3125 C 25.203125 27.433594 25 27.597656 24.710938 27.761719 L 18.648438 27.761719 C 18.238281 26.902344 17.582031 26.246094 16.558594 26.246094 C 15.207031 26.246094 14.101562 27.351562 14.101562 28.703125 C 14.101562 30.054688 15.207031 31.160156 16.558594 31.160156 C 17.542969 31.160156 18.238281 30.464844 18.648438 29.644531 L 36.472656 29.644531 C 36.839844 28.828125 37.742188 28.214844 38.726562 28.214844 C 40.078125 28.214844 41.265625 29.277344 41.265625 30.671875 C 41.265625 32.023438 40.078125 33.128906 38.726562 33.128906 C 37.742188 33.128906 36.839844 32.511719 36.472656 31.695312 L 21.433594 31.695312 C 20.984375 32.59375 20.820312 33.578125 20.820312 34.601562 C 20.820312 36.9375 21.886719 38.941406 23.523438 40.375 C 23.605469 40.457031 23.6875 40.664062 23.8125 40.746094 L 19.386719 40.746094 C 19.015625 39.925781 18.117188 39.3125 17.050781 39.3125 C 15.699219 39.3125 14.59375 40.375 14.59375 41.769531 C 14.59375 43.121094 15.65625 44.226562 17.050781 44.226562 C 18.117188 44.226562 19.015625 43.609375 19.386719 42.792969 L 34.382812 42.792969 C 34.75 41.890625 35.570312 41.277344 36.636719 41.277344 C 37.988281 41.277344 39.09375 42.339844 39.09375 43.734375 C 39.09375 45.167969 38.027344 46.273438 36.636719 46.273438 C 35.652344 46.273438 34.75 45.660156 34.382812 44.757812 L 24.054688 44.757812 C 24.21875 47.664062 26.023438 50.082031 28.480469 51.351562 C 29.015625 51.636719 29.546875 52.085938 29.75 52.703125 C 30.203125 53.972656 31.105469 55.035156 32.292969 55.773438 C 32.742188 56.058594 33.195312 56.386719 33.480469 56.839844 C 34.667969 58.476562 36.554688 59.457031 38.726562 59.171875 C 41.632812 58.886719 43.765625 56.386719 43.765625 53.398438 L 43.765625 51.433594 L 36.347656 51.433594 C 35.980469 52.332031 35.160156 52.949219 34.09375 52.949219 C 32.742188 52.949219 31.636719 51.882812 31.636719 50.492188 C 31.636719 49.140625 32.703125 47.953125 34.09375 47.953125 C 35.078125 47.953125 35.980469 48.566406 36.347656 49.464844 L 43.765625 49.464844 L 43.765625 38.367188 L 32.085938 38.367188 C 31.71875 39.1875 30.816406 39.800781 29.832031 39.800781 C 28.480469 39.800781 27.375 38.738281 27.375 37.34375 C 27.375 35.992188 28.441406 34.886719 29.832031 34.886719 C 30.816406 34.886719 31.71875 35.503906 32.085938 36.320312 L 43.722656 36.320312 L 43.722656 24.691406 L 37.535156 24.691406 C 37.167969 25.59375 36.265625 26.207031 35.199219 26.207031 C 33.847656 26.207031 32.742188 25.140625 32.742188 23.75 C 32.742188 22.4375 33.808594 21.25 35.160156 21.25 Z M 35.160156 21.25 " fill-opacity="1" fill-rule="nonzero"/></g><g clip-path="url(#5281bf77e2)"><path fill="#7c2ae8" d="M 54.5 21.25 C 53.433594 21.25 52.53125 21.867188 52.164062 22.765625 L 45.9375 22.765625 L 45.9375 21.25 C 45.9375 18.179688 48.269531 15.558594 51.34375 15.394531 C 53.679688 15.3125 55.6875 16.664062 56.589844 18.628906 C 56.753906 19 57.203125 19.164062 57.570312 19.164062 C 60.726562 19.164062 63.265625 21.703125 63.265625 24.855469 C 63.265625 25.140625 63.265625 25.386719 63.183594 25.59375 C 63.105469 26.328125 63.472656 27.027344 64.167969 27.3125 C 64.457031 27.433594 64.660156 27.597656 64.949219 27.761719 L 71.050781 27.761719 C 71.460938 26.902344 72.117188 26.246094 73.140625 26.246094 C 74.492188 26.246094 75.601562 27.351562 75.601562 28.703125 C 75.601562 30.054688 74.492188 31.160156 73.140625 31.160156 C 72.160156 31.160156 71.460938 30.464844 71.050781 29.644531 L 53.230469 29.644531 C 52.859375 28.828125 51.957031 28.214844 50.976562 28.214844 C 49.625 28.214844 48.433594 29.277344 48.433594 30.671875 C 48.433594 32.023438 49.625 33.128906 50.976562 33.128906 C 51.957031 33.128906 52.859375 32.511719 53.230469 31.695312 L 68.226562 31.695312 C 68.675781 32.59375 68.839844 33.578125 68.839844 34.601562 C 68.839844 36.9375 67.773438 38.941406 66.136719 40.375 C 66.054688 40.457031 65.972656 40.664062 65.847656 40.746094 L 70.273438 40.746094 C 70.640625 39.925781 71.542969 39.3125 72.609375 39.3125 C 73.960938 39.3125 75.066406 40.375 75.066406 41.769531 C 75.066406 43.121094 74.003906 44.226562 72.609375 44.226562 C 71.542969 44.226562 70.640625 43.609375 70.273438 42.792969 L 55.277344 42.792969 C 54.910156 41.890625 54.089844 41.277344 53.023438 41.277344 C 51.671875 41.277344 50.566406 42.339844 50.566406 43.734375 C 50.566406 45.167969 51.632812 46.273438 53.023438 46.273438 C 54.007812 46.273438 54.910156 45.660156 55.277344 44.757812 L 65.5625 44.757812 C 65.398438 47.664062 63.59375 50.082031 61.136719 51.351562 C 60.605469 51.636719 60.070312 52.085938 59.867188 52.703125 C 59.414062 53.972656 58.515625 55.035156 57.328125 55.773438 C 56.875 56.058594 56.425781 56.386719 56.136719 56.839844 C 54.949219 58.476562 53.066406 59.457031 50.894531 59.171875 C 47.984375 58.886719 45.855469 56.386719 45.855469 53.398438 L 45.855469 51.433594 L 53.269531 51.433594 C 53.640625 52.332031 54.457031 52.949219 55.523438 52.949219 C 56.875 52.949219 57.980469 51.882812 57.980469 50.492188 C 57.980469 49.140625 56.917969 47.953125 55.523438 47.953125 C 54.539062 47.953125 53.640625 48.566406 53.269531 49.464844 L 45.855469 49.464844 L 45.855469 38.367188 L 57.492188 38.367188 C 57.859375 39.1875 58.761719 39.800781 59.742188 39.800781 C 61.097656 39.800781 62.203125 38.738281 62.203125 37.34375 C 62.203125 35.992188 61.136719 34.886719 59.742188 34.886719 C 58.761719 34.886719 57.859375 35.503906 57.492188 36.320312 L 45.855469 36.320312 L 45.855469 24.691406 L 52.082031 24.691406 C 52.449219 25.59375 53.351562 26.207031 54.417969 26.207031 C 55.769531 26.207031 56.875 25.140625 56.875 23.75 C 56.917969 22.4375 55.851562 21.25 54.5 21.25 Z M 54.5 21.25 " fill-opacity="1" fill-rule="nonzero"/></g><g fill="#7c2ae8" fill-opacity="1"><g transform="translate(15.909876, 70.909095)"><g><path d="M 5.078125 0.117188 C 6.769531 0.117188 8.230469 -0.824219 8.984375 -2.214844 L 7.769531 -2.863281 C 7.261719 -1.910156 6.25 -1.289062 5.078125 -1.289062 C 3.371094 -1.289062 2.023438 -2.617188 2.023438 -4.339844 C 2.023438 -6.0625 3.371094 -7.390625 5.078125 -7.390625 C 6.25 -7.390625 7.261719 -6.769531 7.769531 -5.816406 L 8.984375 -6.464844 C 8.230469 -7.855469 6.769531 -8.796875 5.078125 -8.796875 C 2.617188 -8.796875 0.621094 -6.800781 0.621094 -4.339844 C 0.621094 -1.878906 2.617188 0.117188 5.078125 0.117188 Z M 5.078125 0.117188 "/></g></g></g><g fill="#7c2ae8" fill-opacity="1"><g transform="translate(26.361354, 70.909095)"><g><path d="M 1.707031 -6.8125 C 2.15625 -6.8125 2.53125 -7.1875 2.53125 -7.625 C 2.53125 -8.085938 2.15625 -8.449219 1.707031 -8.449219 C 1.257812 -8.449219 0.882812 -8.085938 0.882812 -7.625 C 0.882812 -7.1875 1.257812 -6.8125 1.707031 -6.8125 Z M 1.027344 0 L 2.386719 0 L 2.386719 -5.785156 L 1.027344 -5.785156 Z M 1.027344 0 "/></g></g></g><g fill="#7c2ae8" fill-opacity="1"><g transform="translate(30.827218, 70.909095)"><g><path d="M 4.109375 -5.902344 C 3.355469 -5.902344 2.734375 -5.554688 2.328125 -4.992188 L 2.328125 -5.785156 L 0.953125 -5.785156 L 0.953125 0 L 2.328125 0 L 2.328125 -2.9375 C 2.328125 -3.949219 3.082031 -4.628906 4.078125 -4.628906 C 4.265625 -4.628906 4.425781 -4.601562 4.570312 -4.570312 L 4.570312 -5.859375 C 4.425781 -5.886719 4.265625 -5.902344 4.109375 -5.902344 Z M 4.109375 -5.902344 "/></g></g></g><g fill="#7c2ae8" fill-opacity="1"><g transform="translate(36.464178, 70.909095)"><g><path d="M 3.660156 0.117188 C 5.191406 0.117188 6.351562 -0.824219 6.667969 -2.15625 L 5.238281 -2.15625 C 4.960938 -1.5625 4.367188 -1.15625 3.660156 -1.15625 C 2.691406 -1.15625 1.925781 -1.910156 1.925781 -2.894531 C 1.925781 -3.875 2.691406 -4.628906 3.660156 -4.628906 C 4.367188 -4.628906 4.960938 -4.222656 5.238281 -3.632812 L 6.667969 -3.632812 C 6.351562 -4.960938 5.191406 -5.902344 3.660156 -5.902344 C 1.867188 -5.902344 0.550781 -4.585938 0.550781 -2.894531 C 0.550781 -1.199219 1.867188 0.117188 3.660156 0.117188 Z M 3.660156 0.117188 "/></g></g></g><g fill="#7c2ae8" fill-opacity="1"><g transform="translate(44.515624, 70.909095)"><g><path d="M 3.226562 0.117188 C 4.746094 0.117188 5.65625 -0.753906 5.65625 -2.140625 L 5.65625 -5.785156 L 4.296875 -5.785156 L 4.296875 -2.316406 C 4.296875 -1.605469 3.847656 -1.15625 3.226562 -1.15625 C 2.605469 -1.15625 2.15625 -1.605469 2.15625 -2.316406 L 2.15625 -5.785156 L 0.796875 -5.785156 L 0.796875 -2.140625 C 0.796875 -0.753906 1.707031 0.117188 3.226562 0.117188 Z M 3.226562 0.117188 "/></g></g></g><g fill="#7c2ae8" fill-opacity="1"><g transform="translate(52.017661, 70.909095)"><g><path d="M 1.707031 -6.8125 C 2.15625 -6.8125 2.53125 -7.1875 2.53125 -7.625 C 2.53125 -8.085938 2.15625 -8.449219 1.707031 -8.449219 C 1.257812 -8.449219 0.882812 -8.085938 0.882812 -7.625 C 0.882812 -7.1875 1.257812 -6.8125 1.707031 -6.8125 Z M 1.027344 0 L 2.386719 0 L 2.386719 -5.785156 L 1.027344 -5.785156 Z M 1.027344 0 "/></g></g></g><g fill="#7c2ae8" fill-opacity="1"><g transform="translate(56.483523, 70.909095)"><g><path d="M 4.019531 -4.628906 L 4.019531 -5.785156 L 2.558594 -5.785156 L 2.558594 -8.160156 L 1.1875 -8.160156 L 1.1875 -5.785156 L 0.230469 -5.785156 L 0.230469 -4.628906 L 1.1875 -4.628906 L 1.1875 -1.792969 C 1.1875 -0.722656 2.097656 0.117188 3.152344 0.117188 C 3.484375 0.117188 3.847656 0.0273438 3.992188 -0.0742188 L 3.992188 -1.128906 L 3.328125 -1.128906 C 2.894531 -1.128906 2.558594 -1.445312 2.558594 -1.953125 L 2.558594 -4.628906 Z M 4.019531 -4.628906 "/></g></g></g><g fill="#7c2ae8" fill-opacity="1"><g transform="translate(61.932524, 70.909095)"><g><path d="M 6.21875 0 L 7.753906 0 L 4.613281 -8.679688 L 3.039062 -8.679688 L -0.101562 0 L 1.433594 0 L 2.054688 -1.835938 L 5.597656 -1.835938 Z M 2.472656 -3.082031 L 3.832031 -7.132812 L 5.191406 -3.082031 Z M 2.472656 -3.082031 "/></g></g></g><g fill="#7c2ae8" fill-opacity="1"><g transform="translate(70.634576, 70.909095)"><g><path d="M 1.027344 0 L 2.445312 0 L 2.445312 -8.679688 L 1.027344 -8.679688 Z M 1.027344 0 "/></g></g></g><g fill="#000000" fill-opacity="1"><g transform="translate(26.367859, 78.710787)"><g><path d="M 0.28125 0.734375 L 0.28125 -1.953125 L 0.5625 -1.953125 L 0.5625 -1.640625 L 0.59375 -1.640625 C 0.613281 -1.671875 0.644531 -1.710938 0.6875 -1.765625 C 0.726562 -1.816406 0.785156 -1.863281 0.859375 -1.90625 C 0.929688 -1.957031 1.03125 -1.984375 1.15625 -1.984375 C 1.320312 -1.984375 1.46875 -1.941406 1.59375 -1.859375 C 1.71875 -1.773438 1.816406 -1.65625 1.890625 -1.5 C 1.960938 -1.351562 2 -1.175781 2 -0.96875 C 2 -0.757812 1.960938 -0.578125 1.890625 -0.421875 C 1.816406 -0.273438 1.71875 -0.160156 1.59375 -0.078125 C 1.46875 0.00390625 1.328125 0.046875 1.171875 0.046875 C 1.046875 0.046875 0.941406 0.0234375 0.859375 -0.015625 C 0.785156 -0.0546875 0.726562 -0.101562 0.6875 -0.15625 C 0.644531 -0.21875 0.613281 -0.265625 0.59375 -0.296875 L 0.578125 -0.296875 L 0.578125 0.734375 Z M 0.5625 -0.96875 C 0.5625 -0.75 0.609375 -0.570312 0.703125 -0.4375 C 0.804688 -0.300781 0.945312 -0.234375 1.125 -0.234375 C 1.25 -0.234375 1.351562 -0.265625 1.4375 -0.328125 C 1.519531 -0.390625 1.582031 -0.476562 1.625 -0.59375 C 1.675781 -0.707031 1.703125 -0.832031 1.703125 -0.96875 C 1.703125 -1.113281 1.679688 -1.238281 1.640625 -1.34375 C 1.597656 -1.457031 1.53125 -1.546875 1.4375 -1.609375 C 1.351562 -1.671875 1.25 -1.703125 1.125 -1.703125 C 0.945312 -1.703125 0.804688 -1.632812 0.703125 -1.5 C 0.609375 -1.363281 0.5625 -1.1875 0.5625 -0.96875 Z M 0.5625 -0.96875 "/></g></g></g><g fill="#000000" fill-opacity="1"><g transform="translate(28.875122, 78.710787)"><g><path d="M 1.0625 0.046875 C 0.882812 0.046875 0.726562 0.00390625 0.59375 -0.078125 C 0.46875 -0.160156 0.367188 -0.273438 0.296875 -0.421875 C 0.222656 -0.578125 0.1875 -0.757812 0.1875 -0.96875 C 0.1875 -1.164062 0.222656 -1.335938 0.296875 -1.484375 C 0.367188 -1.640625 0.46875 -1.757812 0.59375 -1.84375 C 0.726562 -1.9375 0.882812 -1.984375 1.0625 -1.984375 C 1.238281 -1.984375 1.394531 -1.9375 1.53125 -1.84375 C 1.664062 -1.757812 1.769531 -1.640625 1.84375 -1.484375 C 1.914062 -1.335938 1.953125 -1.164062 1.953125 -0.96875 C 1.953125 -0.757812 1.914062 -0.578125 1.84375 -0.421875 C 1.769531 -0.273438 1.664062 -0.160156 1.53125 -0.078125 C 1.394531 0.00390625 1.238281 0.046875 1.0625 0.046875 Z M 1.0625 -0.234375 C 1.195312 -0.234375 1.304688 -0.265625 1.390625 -0.328125 C 1.484375 -0.398438 1.550781 -0.488281 1.59375 -0.59375 C 1.632812 -0.707031 1.65625 -0.832031 1.65625 -0.96875 C 1.65625 -1.09375 1.632812 -1.210938 1.59375 -1.328125 C 1.550781 -1.441406 1.484375 -1.53125 1.390625 -1.59375 C 1.304688 -1.664062 1.195312 -1.703125 1.0625 -1.703125 C 0.925781 -1.703125 0.816406 -1.664062 0.734375 -1.59375 C 0.648438 -1.53125 0.585938 -1.441406 0.546875 -1.328125 C 0.503906 -1.210938 0.484375 -1.09375 0.484375 -0.96875 C 0.484375 -0.832031 0.503906 -0.707031 0.546875 -0.59375 C 0.585938 -0.488281 0.648438 -0.398438 0.734375 -0.328125 C 0.816406 -0.265625 0.925781 -0.234375 1.0625 -0.234375 Z M 1.0625 -0.234375 "/></g></g></g><g fill="#000000" fill-opacity="1"><g transform="translate(31.336618, 78.710787)"><g><path d="M 0.71875 0 L 0.125 -1.953125 L 0.4375 -1.953125 L 0.859375 -0.453125 L 0.875 -0.453125 L 1.296875 -1.953125 L 1.609375 -1.953125 L 2.03125 -0.46875 L 2.046875 -0.46875 L 2.46875 -1.953125 L 2.78125 -1.953125 L 2.1875 0 L 1.890625 0 L 1.46875 -1.5 L 1.4375 -1.5 L 1.015625 0 Z M 0.71875 0 "/></g></g></g><g fill="#000000" fill-opacity="1"><g transform="translate(34.571044, 78.710787)"><g><path d="M 1.09375 0.046875 C 0.90625 0.046875 0.742188 0.00390625 0.609375 -0.078125 C 0.472656 -0.160156 0.367188 -0.273438 0.296875 -0.421875 C 0.222656 -0.578125 0.1875 -0.753906 0.1875 -0.953125 C 0.1875 -1.160156 0.222656 -1.335938 0.296875 -1.484375 C 0.367188 -1.640625 0.46875 -1.757812 0.59375 -1.84375 C 0.726562 -1.9375 0.882812 -1.984375 1.0625 -1.984375 C 1.164062 -1.984375 1.265625 -1.960938 1.359375 -1.921875 C 1.460938 -1.890625 1.550781 -1.832031 1.625 -1.75 C 1.707031 -1.675781 1.773438 -1.578125 1.828125 -1.453125 C 1.878906 -1.335938 1.90625 -1.1875 1.90625 -1 L 1.90625 -0.875 L 0.484375 -0.875 C 0.492188 -0.664062 0.550781 -0.503906 0.65625 -0.390625 C 0.769531 -0.285156 0.914062 -0.234375 1.09375 -0.234375 C 1.207031 -0.234375 1.304688 -0.253906 1.390625 -0.296875 C 1.472656 -0.347656 1.535156 -0.425781 1.578125 -0.53125 L 1.875 -0.453125 C 1.820312 -0.304688 1.726562 -0.1875 1.59375 -0.09375 C 1.457031 0 1.289062 0.046875 1.09375 0.046875 Z M 0.484375 -1.140625 L 1.59375 -1.140625 C 1.59375 -1.296875 1.546875 -1.425781 1.453125 -1.53125 C 1.359375 -1.644531 1.226562 -1.703125 1.0625 -1.703125 C 0.945312 -1.703125 0.847656 -1.675781 0.765625 -1.625 C 0.679688 -1.570312 0.613281 -1.5 0.5625 -1.40625 C 0.519531 -1.320312 0.492188 -1.234375 0.484375 -1.140625 Z M 0.484375 -1.140625 "/></g></g></g><g fill="#000000" fill-opacity="1"><g transform="translate(36.981692, 78.710787)"><g><path d="M 0.28125 0 L 0.28125 -1.953125 L 0.5625 -1.953125 L 0.5625 -1.65625 L 0.578125 -1.65625 C 0.617188 -1.75 0.6875 -1.828125 0.78125 -1.890625 C 0.875 -1.953125 0.976562 -1.984375 1.09375 -1.984375 C 1.144531 -1.984375 1.191406 -1.972656 1.234375 -1.953125 C 1.273438 -1.941406 1.3125 -1.925781 1.34375 -1.90625 L 1.234375 -1.65625 C 1.210938 -1.664062 1.1875 -1.671875 1.15625 -1.671875 C 1.132812 -1.679688 1.101562 -1.6875 1.0625 -1.6875 C 0.925781 -1.6875 0.8125 -1.644531 0.71875 -1.5625 C 0.625 -1.476562 0.578125 -1.367188 0.578125 -1.234375 L 0.578125 0 Z M 0.28125 0 "/></g></g></g><g fill="#000000" fill-opacity="1"><g transform="translate(38.680432, 78.710787)"><g><path d="M 1.09375 0.046875 C 0.90625 0.046875 0.742188 0.00390625 0.609375 -0.078125 C 0.472656 -0.160156 0.367188 -0.273438 0.296875 -0.421875 C 0.222656 -0.578125 0.1875 -0.753906 0.1875 -0.953125 C 0.1875 -1.160156 0.222656 -1.335938 0.296875 -1.484375 C 0.367188 -1.640625 0.46875 -1.757812 0.59375 -1.84375 C 0.726562 -1.9375 0.882812 -1.984375 1.0625 -1.984375 C 1.164062 -1.984375 1.265625 -1.960938 1.359375 -1.921875 C 1.460938 -1.890625 1.550781 -1.832031 1.625 -1.75 C 1.707031 -1.675781 1.773438 -1.578125 1.828125 -1.453125 C 1.878906 -1.335938 1.90625 -1.1875 1.90625 -1 L 1.90625 -0.875 L 0.484375 -0.875 C 0.492188 -0.664062 0.550781 -0.503906 0.65625 -0.390625 C 0.769531 -0.285156 0.914062 -0.234375 1.09375 -0.234375 C 1.207031 -0.234375 1.304688 -0.253906 1.390625 -0.296875 C 1.472656 -0.347656 1.535156 -0.425781 1.578125 -0.53125 L 1.875 -0.453125 C 1.820312 -0.304688 1.726562 -0.1875 1.59375 -0.09375 C 1.457031 0 1.289062 0.046875 1.09375 0.046875 Z M 0.484375 -1.140625 L 1.59375 -1.140625 C 1.59375 -1.296875 1.546875 -1.425781 1.453125 -1.53125 C 1.359375 -1.644531 1.226562 -1.703125 1.0625 -1.703125 C 0.945312 -1.703125 0.847656 -1.675781 0.765625 -1.625 C 0.679688 -1.570312 0.613281 -1.5 0.5625 -1.40625 C 0.519531 -1.320312 0.492188 -1.234375 0.484375 -1.140625 Z M 0.484375 -1.140625 "/></g></g></g><g fill="#000000" fill-opacity="1"><g transform="translate(41.091081, 78.710787)"><g><path d="M 1.015625 0.046875 C 0.847656 0.046875 0.703125 0.00390625 0.578125 -0.078125 C 0.453125 -0.160156 0.351562 -0.273438 0.28125 -0.421875 C 0.21875 -0.578125 0.1875 -0.757812 0.1875 -0.96875 C 0.1875 -1.175781 0.21875 -1.351562 0.28125 -1.5 C 0.351562 -1.65625 0.453125 -1.773438 0.578125 -1.859375 C 0.703125 -1.941406 0.847656 -1.984375 1.015625 -1.984375 C 1.140625 -1.984375 1.238281 -1.957031 1.3125 -1.90625 C 1.382812 -1.863281 1.441406 -1.816406 1.484375 -1.765625 C 1.523438 -1.710938 1.554688 -1.671875 1.578125 -1.640625 L 1.609375 -1.640625 L 1.609375 -2.609375 L 1.90625 -2.609375 L 1.90625 0 L 1.609375 0 L 1.609375 -0.296875 L 1.578125 -0.296875 C 1.554688 -0.265625 1.523438 -0.21875 1.484375 -0.15625 C 1.441406 -0.101562 1.382812 -0.0546875 1.3125 -0.015625 C 1.238281 0.0234375 1.140625 0.046875 1.015625 0.046875 Z M 1.046875 -0.234375 C 1.234375 -0.234375 1.375 -0.300781 1.46875 -0.4375 C 1.5625 -0.570312 1.609375 -0.75 1.609375 -0.96875 C 1.609375 -1.1875 1.5625 -1.363281 1.46875 -1.5 C 1.375 -1.632812 1.234375 -1.703125 1.046875 -1.703125 C 0.921875 -1.703125 0.816406 -1.671875 0.734375 -1.609375 C 0.648438 -1.546875 0.585938 -1.457031 0.546875 -1.34375 C 0.503906 -1.238281 0.484375 -1.113281 0.484375 -0.96875 C 0.484375 -0.832031 0.503906 -0.707031 0.546875 -0.59375 C 0.585938 -0.476562 0.648438 -0.390625 0.734375 -0.328125 C 0.816406 -0.265625 0.921875 -0.234375 1.046875 -0.234375 Z M 1.046875 -0.234375 "/></g></g></g><g fill="#000000" fill-opacity="1"><g transform="translate(43.639022, 78.710787)"><g/></g></g><g fill="#000000" fill-opacity="1"><g transform="translate(44.971636, 78.710787)"><g><path d="M 0.3125 0 L 0.3125 -2.609375 L 0.609375 -2.609375 L 0.609375 -1.640625 L 0.640625 -1.640625 C 0.660156 -1.671875 0.691406 -1.710938 0.734375 -1.765625 C 0.773438 -1.816406 0.832031 -1.863281 0.90625 -1.90625 C 0.976562 -1.957031 1.078125 -1.984375 1.203125 -1.984375 C 1.367188 -1.984375 1.515625 -1.941406 1.640625 -1.859375 C 1.765625 -1.773438 1.859375 -1.65625 1.921875 -1.5 C 1.992188 -1.351562 2.03125 -1.175781 2.03125 -0.96875 C 2.03125 -0.757812 1.992188 -0.578125 1.921875 -0.421875 C 1.859375 -0.273438 1.765625 -0.160156 1.640625 -0.078125 C 1.515625 0.00390625 1.367188 0.046875 1.203125 0.046875 C 1.078125 0.046875 0.976562 0.0234375 0.90625 -0.015625 C 0.832031 -0.0546875 0.773438 -0.101562 0.734375 -0.15625 C 0.691406 -0.21875 0.660156 -0.265625 0.640625 -0.296875 L 0.609375 -0.296875 L 0.609375 0 Z M 0.609375 -0.96875 C 0.609375 -0.75 0.65625 -0.570312 0.75 -0.4375 C 0.84375 -0.300781 0.984375 -0.234375 1.171875 -0.234375 C 1.296875 -0.234375 1.398438 -0.265625 1.484375 -0.328125 C 1.566406 -0.390625 1.628906 -0.476562 1.671875 -0.59375 C 1.710938 -0.707031 1.734375 -0.832031 1.734375 -0.96875 C 1.734375 -1.113281 1.710938 -1.238281 1.671875 -1.34375 C 1.628906 -1.457031 1.566406 -1.546875 1.484375 -1.609375 C 1.398438 -1.671875 1.296875 -1.703125 1.171875 -1.703125 C 0.984375 -1.703125 0.84375 -1.632812 0.75 -1.5 C 0.65625 -1.363281 0.609375 -1.1875 0.609375 -0.96875 Z M 0.609375 -0.96875 "/></g></g></g><g fill="#000000" fill-opacity="1"><g transform="translate(47.519578, 78.710787)"><g><path d="M 0.453125 0.75 C 0.398438 0.75 0.351562 0.742188 0.3125 0.734375 C 0.28125 0.734375 0.253906 0.726562 0.234375 0.71875 L 0.3125 0.453125 C 0.425781 0.484375 0.519531 0.484375 0.59375 0.453125 C 0.664062 0.421875 0.726562 0.332031 0.78125 0.1875 L 0.84375 0.015625 L 0.125 -1.953125 L 0.453125 -1.953125 L 0.984375 -0.390625 L 1 -0.390625 L 1.546875 -1.953125 L 1.875 -1.953125 L 1.03125 0.3125 C 0.914062 0.601562 0.722656 0.75 0.453125 0.75 Z M 0.453125 0.75 "/></g></g></g><g fill="#000000" fill-opacity="1"><g transform="translate(49.838697, 78.710787)"><g/></g></g><g fill="#000000" fill-opacity="1"><g transform="translate(51.171312, 78.710787)"><g><path d="M 2.09375 -1.78125 C 2.039062 -1.957031 1.953125 -2.09375 1.828125 -2.1875 C 1.703125 -2.289062 1.546875 -2.34375 1.359375 -2.34375 C 1.203125 -2.34375 1.054688 -2.300781 0.921875 -2.21875 C 0.796875 -2.144531 0.695312 -2.03125 0.625 -1.875 C 0.550781 -1.71875 0.515625 -1.523438 0.515625 -1.296875 C 0.515625 -1.078125 0.550781 -0.890625 0.625 -0.734375 C 0.707031 -0.578125 0.8125 -0.457031 0.9375 -0.375 C 1.0625 -0.300781 1.207031 -0.265625 1.375 -0.265625 C 1.519531 -0.265625 1.648438 -0.296875 1.765625 -0.359375 C 1.878906 -0.421875 1.96875 -0.503906 2.03125 -0.609375 C 2.09375 -0.722656 2.125 -0.859375 2.125 -1.015625 L 1.4375 -1.015625 L 1.4375 -1.296875 L 2.4375 -1.296875 L 2.4375 -1.015625 C 2.4375 -0.804688 2.390625 -0.617188 2.296875 -0.453125 C 2.203125 -0.296875 2.078125 -0.175781 1.921875 -0.09375 C 1.765625 -0.0078125 1.582031 0.03125 1.375 0.03125 C 1.144531 0.03125 0.941406 -0.0195312 0.765625 -0.125 C 0.585938 -0.238281 0.453125 -0.394531 0.359375 -0.59375 C 0.265625 -0.789062 0.21875 -1.023438 0.21875 -1.296875 C 0.21875 -1.578125 0.265625 -1.816406 0.359375 -2.015625 C 0.453125 -2.210938 0.582031 -2.363281 0.75 -2.46875 C 0.925781 -2.582031 1.128906 -2.640625 1.359375 -2.640625 C 1.535156 -2.640625 1.695312 -2.601562 1.84375 -2.53125 C 2 -2.457031 2.125 -2.359375 2.21875 -2.234375 C 2.320312 -2.109375 2.390625 -1.957031 2.421875 -1.78125 Z M 2.09375 -1.78125 "/></g></g></g><g fill="#000000" fill-opacity="1"><g transform="translate(54.156572, 78.710787)"><g><path d="M 0.3125 0 L 0.3125 -2.609375 L 1.1875 -2.609375 C 1.394531 -2.609375 1.5625 -2.566406 1.6875 -2.484375 C 1.820312 -2.410156 1.921875 -2.3125 1.984375 -2.1875 C 2.046875 -2.070312 2.078125 -1.9375 2.078125 -1.78125 C 2.078125 -1.625 2.046875 -1.484375 1.984375 -1.359375 C 1.921875 -1.234375 1.820312 -1.132812 1.6875 -1.0625 C 1.5625 -0.988281 1.398438 -0.953125 1.203125 -0.953125 L 0.625 -0.953125 L 0.625 0 Z M 0.625 -1.234375 L 1.1875 -1.234375 C 1.394531 -1.234375 1.539062 -1.285156 1.625 -1.390625 C 1.71875 -1.492188 1.765625 -1.625 1.765625 -1.78125 C 1.765625 -1.9375 1.71875 -2.066406 1.625 -2.171875 C 1.539062 -2.273438 1.394531 -2.328125 1.1875 -2.328125 L 0.625 -2.328125 Z M 0.625 -1.234375 "/></g></g></g><g fill="#000000" fill-opacity="1"><g transform="translate(56.755366, 78.710787)"><g><path d="M 0.171875 -2.328125 L 0.171875 -2.609375 L 2.125 -2.609375 L 2.125 -2.328125 L 1.3125 -2.328125 L 1.3125 0 L 0.984375 0 L 0.984375 -2.328125 Z M 0.171875 -2.328125 "/></g></g></g><g fill="#000000" fill-opacity="1"><g transform="translate(59.379585, 78.710787)"><g><path d="M 1.390625 -1.25 L 1.390625 -0.96875 L 0.25 -0.96875 L 0.25 -1.25 Z M 1.390625 -1.25 "/></g></g></g><g fill="#000000" fill-opacity="1"><g transform="translate(61.352917, 78.710787)"><g><path d="M 1.15625 0.03125 C 0.976562 0.03125 0.820312 0.00390625 0.6875 -0.046875 C 0.5625 -0.109375 0.460938 -0.191406 0.390625 -0.296875 C 0.316406 -0.398438 0.273438 -0.519531 0.265625 -0.65625 L 0.578125 -0.65625 C 0.585938 -0.53125 0.644531 -0.429688 0.75 -0.359375 C 0.863281 -0.285156 0.992188 -0.25 1.140625 -0.25 C 1.304688 -0.25 1.441406 -0.289062 1.546875 -0.375 C 1.660156 -0.457031 1.71875 -0.566406 1.71875 -0.703125 C 1.71875 -0.847656 1.664062 -0.960938 1.5625 -1.046875 C 1.457031 -1.140625 1.304688 -1.1875 1.109375 -1.1875 L 0.890625 -1.1875 L 0.890625 -1.46875 L 1.109375 -1.46875 C 1.253906 -1.46875 1.375 -1.507812 1.46875 -1.59375 C 1.570312 -1.675781 1.625 -1.785156 1.625 -1.921875 C 1.625 -2.054688 1.582031 -2.160156 1.5 -2.234375 C 1.414062 -2.316406 1.300781 -2.359375 1.15625 -2.359375 C 1.0625 -2.359375 0.972656 -2.34375 0.890625 -2.3125 C 0.816406 -2.28125 0.753906 -2.234375 0.703125 -2.171875 C 0.648438 -2.109375 0.625 -2.035156 0.625 -1.953125 L 0.3125 -1.953125 C 0.320312 -2.085938 0.363281 -2.207031 0.4375 -2.3125 C 0.519531 -2.414062 0.625 -2.492188 0.75 -2.546875 C 0.875 -2.609375 1.007812 -2.640625 1.15625 -2.640625 C 1.320312 -2.640625 1.460938 -2.601562 1.578125 -2.53125 C 1.691406 -2.46875 1.78125 -2.382812 1.84375 -2.28125 C 1.90625 -2.175781 1.9375 -2.0625 1.9375 -1.9375 C 1.9375 -1.789062 1.894531 -1.664062 1.8125 -1.5625 C 1.738281 -1.457031 1.632812 -1.390625 1.5 -1.359375 L 1.5 -1.328125 C 1.664062 -1.304688 1.796875 -1.238281 1.890625 -1.125 C 1.984375 -1.007812 2.03125 -0.867188 2.03125 -0.703125 C 2.03125 -0.566406 1.988281 -0.441406 1.90625 -0.328125 C 1.832031 -0.210938 1.726562 -0.125 1.59375 -0.0625 C 1.46875 0 1.320312 0.03125 1.15625 0.03125 Z M 1.15625 0.03125 "/></g></g></g></svg>