<svg xmlns="http://www.w3.org/2000/svg" xmlns:xlink="http://www.w3.org/1999/xlink" width="500" zoomAndPan="magnify" viewBox="0 0 375 374.999991" height="500" preserveAspectRatio="xMidYMid meet" version="1.0"><defs><g/><clipPath id="4f56c58979"><path d="M 60.207031 56 L 183 56 L 183 238 L 60.207031 238 Z M 60.207031 56 " clip-rule="nonzero"/></clipPath><clipPath id="21cfcce4b7"><path d="M 191 56 L 314.457031 56 L 314.457031 238 L 191 238 Z M 191 56 " clip-rule="nonzero"/></clipPath></defs><rect x="-37.5" width="450" fill="#ffffff" y="-37.499999" height="449.999989" fill-opacity="1"/><rect x="-37.5" width="450" fill="#ffffff" y="-37.499999" height="449.999989" fill-opacity="1"/><rect x="-37.5" width="450" fill="#060644" y="-37.499999" height="449.999989" fill-opacity="1"/><g clip-path="url(#4f56c58979)"><path fill="#75e6da" d="M 147.273438 80.621094 C 151.675781 80.621094 155.402344 83.164062 156.925781 86.886719 L 182.675781 86.886719 L 182.675781 80.621094 C 182.675781 67.921875 173.019531 57.085938 160.316406 56.40625 C 150.660156 56.070312 142.359375 61.65625 138.632812 69.785156 C 137.957031 71.308594 136.09375 71.988281 134.566406 71.988281 C 121.527344 71.988281 111.023438 82.484375 111.023438 95.523438 C 111.023438 96.710938 111.023438 97.726562 111.363281 98.570312 C 111.699219 101.621094 110.175781 104.5 107.296875 105.683594 C 106.109375 106.191406 105.265625 106.871094 104.078125 107.546875 L 79.007812 107.546875 C 77.316406 103.992188 74.605469 101.28125 70.371094 101.28125 C 64.78125 101.28125 60.207031 105.851562 60.207031 111.441406 C 60.207031 117.03125 64.78125 121.601562 70.371094 121.601562 C 74.4375 121.601562 77.316406 118.722656 79.007812 115.335938 L 152.691406 115.335938 C 154.21875 111.949219 157.945312 109.410156 162.007812 109.410156 C 167.597656 109.410156 172.511719 113.8125 172.511719 119.570312 C 172.511719 125.15625 167.597656 129.730469 162.007812 129.730469 C 157.945312 129.730469 154.21875 127.191406 152.691406 123.804688 L 90.527344 123.804688 C 88.664062 127.527344 87.988281 131.59375 87.988281 135.824219 C 87.988281 145.476562 92.390625 153.773438 99.167969 159.703125 C 99.503906 160.039062 99.84375 160.886719 100.351562 161.226562 L 82.058594 161.226562 C 80.535156 157.839844 76.808594 155.300781 72.402344 155.300781 C 66.8125 155.300781 62.238281 159.703125 62.238281 165.460938 C 62.238281 171.046875 66.644531 175.621094 72.402344 175.621094 C 76.808594 175.621094 80.535156 173.078125 82.058594 169.691406 L 144.054688 169.691406 C 145.578125 165.96875 148.964844 163.425781 153.371094 163.425781 C 158.960938 163.425781 163.535156 167.828125 163.535156 173.585938 C 163.535156 179.515625 159.128906 184.085938 153.371094 184.085938 C 149.304688 184.085938 145.578125 181.546875 144.054688 177.820312 L 101.367188 177.820312 C 102.046875 189.84375 109.5 199.835938 119.664062 205.082031 C 121.863281 206.269531 124.066406 208.132812 124.914062 210.671875 C 126.777344 215.921875 130.503906 220.324219 135.414062 223.371094 C 137.277344 224.558594 139.140625 225.910156 140.328125 227.773438 C 145.238281 234.546875 153.03125 238.613281 162.007812 237.425781 C 174.035156 236.242188 182.84375 225.910156 182.84375 213.550781 L 182.84375 205.421875 L 152.183594 205.421875 C 150.660156 209.148438 147.273438 211.6875 142.867188 211.6875 C 137.277344 211.6875 132.703125 207.285156 132.703125 201.527344 C 132.703125 195.941406 137.109375 191.027344 142.867188 191.027344 C 146.933594 191.027344 150.660156 193.570312 152.183594 197.292969 L 182.84375 197.292969 L 182.84375 151.40625 L 134.566406 151.40625 C 133.042969 154.792969 129.316406 157.332031 125.25 157.332031 C 119.664062 157.332031 115.089844 152.929688 115.089844 147.171875 C 115.089844 141.582031 119.492188 137.011719 125.25 137.011719 C 129.316406 137.011719 133.042969 139.550781 134.566406 142.9375 L 182.675781 142.9375 L 182.675781 94.847656 L 157.097656 94.847656 C 155.570312 98.570312 151.84375 101.113281 147.441406 101.113281 C 141.851562 101.113281 137.277344 96.710938 137.277344 90.953125 C 137.277344 85.535156 141.683594 80.621094 147.273438 80.621094 Z M 147.273438 80.621094 " fill-opacity="1" fill-rule="nonzero"/></g><g clip-path="url(#21cfcce4b7)"><path fill="#75e6da" d="M 227.222656 80.621094 C 222.820312 80.621094 219.09375 83.164062 217.566406 86.886719 L 191.820312 86.886719 L 191.820312 80.621094 C 191.820312 67.921875 201.476562 57.085938 214.179688 56.40625 C 223.835938 56.070312 232.136719 61.65625 235.863281 69.785156 C 236.539062 71.308594 238.402344 71.988281 239.925781 71.988281 C 252.96875 71.988281 263.472656 82.484375 263.472656 95.523438 C 263.472656 96.710938 263.472656 97.726562 263.132812 98.570312 C 262.792969 101.621094 264.320312 104.5 267.199219 105.683594 C 268.382812 106.191406 269.230469 106.871094 270.417969 107.546875 L 295.65625 107.546875 C 297.347656 103.992188 300.058594 101.28125 304.292969 101.28125 C 309.882812 101.28125 314.457031 105.851562 314.457031 111.441406 C 314.457031 117.03125 309.882812 121.601562 304.292969 121.601562 C 300.230469 121.601562 297.347656 118.722656 295.65625 115.335938 L 221.972656 115.335938 C 220.449219 111.949219 216.722656 109.410156 212.65625 109.410156 C 207.066406 109.410156 202.152344 113.8125 202.152344 119.570312 C 202.152344 125.15625 207.066406 129.730469 212.65625 129.730469 C 216.722656 129.730469 220.449219 127.191406 221.972656 123.804688 L 283.96875 123.804688 C 285.832031 127.527344 286.507812 131.59375 286.507812 135.824219 C 286.507812 145.476562 282.105469 153.773438 275.328125 159.703125 C 274.988281 160.039062 274.652344 160.886719 274.144531 161.226562 L 292.4375 161.226562 C 293.960938 157.839844 297.6875 155.300781 302.09375 155.300781 C 307.683594 155.300781 312.253906 159.703125 312.253906 165.460938 C 312.253906 171.046875 307.851562 175.621094 302.09375 175.621094 C 297.6875 175.621094 293.960938 173.078125 292.4375 169.691406 L 230.441406 169.691406 C 228.917969 165.96875 225.527344 163.425781 221.125 163.425781 C 215.535156 163.425781 210.960938 167.828125 210.960938 173.585938 C 210.960938 179.515625 215.367188 184.085938 221.125 184.085938 C 225.191406 184.085938 228.917969 181.546875 230.441406 177.820312 L 272.957031 177.820312 C 272.28125 189.84375 264.828125 199.835938 254.664062 205.082031 C 252.460938 206.269531 250.257812 208.132812 249.414062 210.671875 C 247.550781 215.921875 243.824219 220.324219 238.910156 223.371094 C 237.046875 224.558594 235.183594 225.910156 234 227.773438 C 229.085938 234.546875 221.292969 238.613281 212.316406 237.425781 C 200.289062 236.242188 191.480469 225.910156 191.480469 213.550781 L 191.480469 205.421875 L 222.140625 205.421875 C 223.664062 209.148438 227.054688 211.6875 231.457031 211.6875 C 237.046875 211.6875 241.621094 207.285156 241.621094 201.527344 C 241.621094 195.941406 237.214844 191.027344 231.457031 191.027344 C 227.390625 191.027344 223.664062 193.570312 222.140625 197.292969 L 191.480469 197.292969 L 191.480469 151.40625 L 239.589844 151.40625 C 241.113281 154.792969 244.839844 157.332031 248.90625 157.332031 C 254.496094 157.332031 259.066406 152.929688 259.066406 147.171875 C 259.066406 141.582031 254.664062 137.011719 248.90625 137.011719 C 244.839844 137.011719 241.113281 139.550781 239.589844 142.9375 L 191.480469 142.9375 L 191.480469 94.847656 L 217.230469 94.847656 C 218.753906 98.570312 222.480469 101.113281 226.882812 101.113281 C 232.472656 101.113281 237.046875 96.710938 237.046875 90.953125 C 237.214844 85.535156 232.8125 80.621094 227.222656 80.621094 Z M 227.222656 80.621094 " fill-opacity="1" fill-rule="nonzero"/></g><g fill="#75e6da" fill-opacity="1"><g transform="translate(129.715743, 315.446638)"><g><path d="M 7.1875 -2.4375 L 2.125 -2.4375 L 1.03125 0 L 0.03125 0 L 4.1875 -9.09375 L 5.140625 -9.09375 L 9.296875 0 L 8.28125 0 Z M 6.84375 -3.21875 L 4.65625 -8.09375 L 2.46875 -3.21875 Z M 6.84375 -3.21875 "/></g></g></g><g fill="#75e6da" fill-opacity="1"><g transform="translate(141.477926, 315.446638)"><g><path d="M 1.484375 -9.09375 L 2.4375 -9.09375 L 2.4375 0 L 1.484375 0 Z M 1.484375 -9.09375 "/></g></g></g><g fill="#75e6da" fill-opacity="1"><g transform="translate(147.84676, 315.446638)"><g/></g></g><g fill="#75e6da" fill-opacity="1"><g transform="translate(153.695758, 315.446638)"><g><path d="M 7.1875 -2.4375 L 2.125 -2.4375 L 1.03125 0 L 0.03125 0 L 4.1875 -9.09375 L 5.140625 -9.09375 L 9.296875 0 L 8.28125 0 Z M 6.84375 -3.21875 L 4.65625 -8.09375 L 2.46875 -3.21875 Z M 6.84375 -3.21875 "/></g></g></g><g fill="#75e6da" fill-opacity="1"><g transform="translate(165.45794, 315.446638)"><g><path d="M 3.984375 0.078125 C 3.316406 0.078125 2.671875 -0.03125 2.046875 -0.25 C 1.429688 -0.46875 0.953125 -0.753906 0.609375 -1.109375 L 0.984375 -1.84375 C 1.316406 -1.519531 1.753906 -1.253906 2.296875 -1.046875 C 2.847656 -0.835938 3.410156 -0.734375 3.984375 -0.734375 C 4.804688 -0.734375 5.421875 -0.882812 5.828125 -1.1875 C 6.234375 -1.488281 6.4375 -1.878906 6.4375 -2.359375 C 6.4375 -2.722656 6.320312 -3.007812 6.09375 -3.21875 C 5.875 -3.4375 5.601562 -3.601562 5.28125 -3.71875 C 4.96875 -3.84375 4.523438 -3.972656 3.953125 -4.109375 C 3.265625 -4.285156 2.71875 -4.453125 2.3125 -4.609375 C 1.90625 -4.765625 1.554688 -5.007812 1.265625 -5.34375 C 0.972656 -5.675781 0.828125 -6.125 0.828125 -6.6875 C 0.828125 -7.144531 0.945312 -7.5625 1.1875 -7.9375 C 1.4375 -8.3125 1.8125 -8.609375 2.3125 -8.828125 C 2.8125 -9.054688 3.4375 -9.171875 4.1875 -9.171875 C 4.707031 -9.171875 5.21875 -9.097656 5.71875 -8.953125 C 6.21875 -8.816406 6.644531 -8.625 7 -8.375 L 6.6875 -7.609375 C 6.300781 -7.859375 5.890625 -8.046875 5.453125 -8.171875 C 5.023438 -8.296875 4.601562 -8.359375 4.1875 -8.359375 C 3.382812 -8.359375 2.78125 -8.203125 2.375 -7.890625 C 1.976562 -7.585938 1.78125 -7.191406 1.78125 -6.703125 C 1.78125 -6.335938 1.890625 -6.046875 2.109375 -5.828125 C 2.328125 -5.609375 2.601562 -5.4375 2.9375 -5.3125 C 3.269531 -5.195312 3.722656 -5.070312 4.296875 -4.9375 C 4.960938 -4.769531 5.5 -4.609375 5.90625 -4.453125 C 6.320312 -4.296875 6.671875 -4.050781 6.953125 -3.71875 C 7.242188 -3.394531 7.390625 -2.957031 7.390625 -2.40625 C 7.390625 -1.945312 7.265625 -1.523438 7.015625 -1.140625 C 6.765625 -0.765625 6.382812 -0.46875 5.875 -0.25 C 5.363281 -0.03125 4.734375 0.078125 3.984375 0.078125 Z M 3.984375 0.078125 "/></g></g></g><g fill="#75e6da" fill-opacity="1"><g transform="translate(175.894531, 315.446638)"><g><path d="M 3.984375 0.078125 C 3.316406 0.078125 2.671875 -0.03125 2.046875 -0.25 C 1.429688 -0.46875 0.953125 -0.753906 0.609375 -1.109375 L 0.984375 -1.84375 C 1.316406 -1.519531 1.753906 -1.253906 2.296875 -1.046875 C 2.847656 -0.835938 3.410156 -0.734375 3.984375 -0.734375 C 4.804688 -0.734375 5.421875 -0.882812 5.828125 -1.1875 C 6.234375 -1.488281 6.4375 -1.878906 6.4375 -2.359375 C 6.4375 -2.722656 6.320312 -3.007812 6.09375 -3.21875 C 5.875 -3.4375 5.601562 -3.601562 5.28125 -3.71875 C 4.96875 -3.84375 4.523438 -3.972656 3.953125 -4.109375 C 3.265625 -4.285156 2.71875 -4.453125 2.3125 -4.609375 C 1.90625 -4.765625 1.554688 -5.007812 1.265625 -5.34375 C 0.972656 -5.675781 0.828125 -6.125 0.828125 -6.6875 C 0.828125 -7.144531 0.945312 -7.5625 1.1875 -7.9375 C 1.4375 -8.3125 1.8125 -8.609375 2.3125 -8.828125 C 2.8125 -9.054688 3.4375 -9.171875 4.1875 -9.171875 C 4.707031 -9.171875 5.21875 -9.097656 5.71875 -8.953125 C 6.21875 -8.816406 6.644531 -8.625 7 -8.375 L 6.6875 -7.609375 C 6.300781 -7.859375 5.890625 -8.046875 5.453125 -8.171875 C 5.023438 -8.296875 4.601562 -8.359375 4.1875 -8.359375 C 3.382812 -8.359375 2.78125 -8.203125 2.375 -7.890625 C 1.976562 -7.585938 1.78125 -7.191406 1.78125 -6.703125 C 1.78125 -6.335938 1.890625 -6.046875 2.109375 -5.828125 C 2.328125 -5.609375 2.601562 -5.4375 2.9375 -5.3125 C 3.269531 -5.195312 3.722656 -5.070312 4.296875 -4.9375 C 4.960938 -4.769531 5.5 -4.609375 5.90625 -4.453125 C 6.320312 -4.296875 6.671875 -4.050781 6.953125 -3.71875 C 7.242188 -3.394531 7.390625 -2.957031 7.390625 -2.40625 C 7.390625 -1.945312 7.265625 -1.523438 7.015625 -1.140625 C 6.765625 -0.765625 6.382812 -0.46875 5.875 -0.25 C 5.363281 -0.03125 4.734375 0.078125 3.984375 0.078125 Z M 3.984375 0.078125 "/></g></g></g><g fill="#75e6da" fill-opacity="1"><g transform="translate(186.331121, 315.446638)"><g><path d="M 1.484375 -9.09375 L 2.4375 -9.09375 L 2.4375 0 L 1.484375 0 Z M 1.484375 -9.09375 "/></g></g></g><g fill="#75e6da" fill-opacity="1"><g transform="translate(192.699958, 315.446638)"><g><path d="M 3.984375 0.078125 C 3.316406 0.078125 2.671875 -0.03125 2.046875 -0.25 C 1.429688 -0.46875 0.953125 -0.753906 0.609375 -1.109375 L 0.984375 -1.84375 C 1.316406 -1.519531 1.753906 -1.253906 2.296875 -1.046875 C 2.847656 -0.835938 3.410156 -0.734375 3.984375 -0.734375 C 4.804688 -0.734375 5.421875 -0.882812 5.828125 -1.1875 C 6.234375 -1.488281 6.4375 -1.878906 6.4375 -2.359375 C 6.4375 -2.722656 6.320312 -3.007812 6.09375 -3.21875 C 5.875 -3.4375 5.601562 -3.601562 5.28125 -3.71875 C 4.96875 -3.84375 4.523438 -3.972656 3.953125 -4.109375 C 3.265625 -4.285156 2.71875 -4.453125 2.3125 -4.609375 C 1.90625 -4.765625 1.554688 -5.007812 1.265625 -5.34375 C 0.972656 -5.675781 0.828125 -6.125 0.828125 -6.6875 C 0.828125 -7.144531 0.945312 -7.5625 1.1875 -7.9375 C 1.4375 -8.3125 1.8125 -8.609375 2.3125 -8.828125 C 2.8125 -9.054688 3.4375 -9.171875 4.1875 -9.171875 C 4.707031 -9.171875 5.21875 -9.097656 5.71875 -8.953125 C 6.21875 -8.816406 6.644531 -8.625 7 -8.375 L 6.6875 -7.609375 C 6.300781 -7.859375 5.890625 -8.046875 5.453125 -8.171875 C 5.023438 -8.296875 4.601562 -8.359375 4.1875 -8.359375 C 3.382812 -8.359375 2.78125 -8.203125 2.375 -7.890625 C 1.976562 -7.585938 1.78125 -7.191406 1.78125 -6.703125 C 1.78125 -6.335938 1.890625 -6.046875 2.109375 -5.828125 C 2.328125 -5.609375 2.601562 -5.4375 2.9375 -5.3125 C 3.269531 -5.195312 3.722656 -5.070312 4.296875 -4.9375 C 4.960938 -4.769531 5.5 -4.609375 5.90625 -4.453125 C 6.320312 -4.296875 6.671875 -4.050781 6.953125 -3.71875 C 7.242188 -3.394531 7.390625 -2.957031 7.390625 -2.40625 C 7.390625 -1.945312 7.265625 -1.523438 7.015625 -1.140625 C 6.765625 -0.765625 6.382812 -0.46875 5.875 -0.25 C 5.363281 -0.03125 4.734375 0.078125 3.984375 0.078125 Z M 3.984375 0.078125 "/></g></g></g><g fill="#75e6da" fill-opacity="1"><g transform="translate(203.136545, 315.446638)"><g><path d="M 3.25 -8.265625 L 0.046875 -8.265625 L 0.046875 -9.09375 L 7.40625 -9.09375 L 7.40625 -8.265625 L 4.21875 -8.265625 L 4.21875 0 L 3.25 0 Z M 3.25 -8.265625 "/></g></g></g><g fill="#75e6da" fill-opacity="1"><g transform="translate(213.040296, 315.446638)"><g><path d="M 7.1875 -2.4375 L 2.125 -2.4375 L 1.03125 0 L 0.03125 0 L 4.1875 -9.09375 L 5.140625 -9.09375 L 9.296875 0 L 8.28125 0 Z M 6.84375 -3.21875 L 4.65625 -8.09375 L 2.46875 -3.21875 Z M 6.84375 -3.21875 "/></g></g></g><g fill="#75e6da" fill-opacity="1"><g transform="translate(224.802476, 315.446638)"><g><path d="M 9.09375 -9.09375 L 9.09375 0 L 8.296875 0 L 2.4375 -7.390625 L 2.4375 0 L 1.484375 0 L 1.484375 -9.09375 L 2.28125 -9.09375 L 8.140625 -1.71875 L 8.140625 -9.09375 Z M 9.09375 -9.09375 "/></g></g></g><g fill="#75e6da" fill-opacity="1"><g transform="translate(237.812267, 315.446638)"><g><path d="M 3.25 -8.265625 L 0.046875 -8.265625 L 0.046875 -9.09375 L 7.40625 -9.09375 L 7.40625 -8.265625 L 4.21875 -8.265625 L 4.21875 0 L 3.25 0 Z M 3.25 -8.265625 "/></g></g></g><g fill="#ffffff" fill-opacity="1"><g transform="translate(83.063149, 289.692069)"><g><path d="M 19.535156 0.445312 C 26.050781 0.445312 31.671875 -3.171875 34.566406 -8.515625 L 29.890625 -11.019531 C 27.941406 -7.347656 24.046875 -4.953125 19.535156 -4.953125 C 12.96875 -4.953125 7.792969 -10.074219 7.792969 -16.699219 C 7.792969 -23.320312 12.96875 -28.441406 19.535156 -28.441406 C 24.046875 -28.441406 27.941406 -26.050781 29.890625 -22.375 L 34.566406 -24.878906 C 31.671875 -30.222656 26.050781 -33.84375 19.535156 -33.84375 C 10.074219 -33.84375 2.394531 -26.160156 2.394531 -16.699219 C 2.394531 -7.234375 10.074219 0.445312 19.535156 0.445312 Z M 19.535156 0.445312 "/></g></g></g><g fill="#ffffff" fill-opacity="1"><g transform="translate(123.293282, 289.692069)"><g><path d="M 3.953125 0 L 9.40625 0 L 9.40625 -33.398438 L 3.953125 -33.398438 Z M 3.953125 0 "/></g></g></g><g fill="#ffffff" fill-opacity="1"><g transform="translate(140.648115, 289.692069)"><g><path d="M 19.148438 -14.527344 C 23.320312 -15.417969 26.382812 -19.09375 26.382812 -23.601562 C 26.382812 -29.054688 22.152344 -33.398438 16.753906 -33.398438 L 3.671875 -33.398438 L 3.671875 0 L 9.128906 0 L 9.128906 -14.027344 L 13.75 -14.027344 L 22.597656 0 L 28.722656 0 Z M 9.128906 -18.757812 L 9.128906 -28.332031 L 16.085938 -28.332031 C 18.925781 -28.332031 21.039062 -26.382812 21.039062 -23.542969 C 21.039062 -20.707031 18.925781 -18.757812 16.085938 -18.757812 Z M 9.128906 -18.757812 "/></g></g></g><g fill="#ffffff" fill-opacity="1"><g transform="translate(173.531438, 289.692069)"><g><path d="M 19.535156 0.445312 C 26.050781 0.445312 31.671875 -3.171875 34.566406 -8.515625 L 29.890625 -11.019531 C 27.941406 -7.347656 24.046875 -4.953125 19.535156 -4.953125 C 12.96875 -4.953125 7.792969 -10.074219 7.792969 -16.699219 C 7.792969 -23.320312 12.96875 -28.441406 19.535156 -28.441406 C 24.046875 -28.441406 27.941406 -26.050781 29.890625 -22.375 L 34.566406 -24.878906 C 31.671875 -30.222656 26.050781 -33.84375 19.535156 -33.84375 C 10.074219 -33.84375 2.394531 -26.160156 2.394531 -16.699219 C 2.394531 -7.234375 10.074219 0.445312 19.535156 0.445312 Z M 19.535156 0.445312 "/></g></g></g><g fill="#ffffff" fill-opacity="1"><g transform="translate(213.76157, 289.692069)"><g><path d="M 16.699219 0.445312 C 24.269531 0.445312 29.945312 -4.398438 29.945312 -10.855469 L 29.945312 -33.398438 L 24.492188 -33.398438 L 24.492188 -11.800781 C 24.492188 -7.679688 21.152344 -4.621094 16.699219 -4.621094 C 12.246094 -4.621094 8.960938 -7.679688 8.960938 -11.800781 L 8.960938 -33.398438 L 3.507812 -33.398438 L 3.507812 -10.855469 C 3.507812 -4.398438 9.128906 0.445312 16.699219 0.445312 Z M 16.699219 0.445312 "/></g></g></g><g fill="#ffffff" fill-opacity="1"><g transform="translate(251.264474, 289.692069)"><g><path d="M 3.953125 0 L 9.40625 0 L 9.40625 -33.398438 L 3.953125 -33.398438 Z M 3.953125 0 "/></g></g></g><g fill="#ffffff" fill-opacity="1"><g transform="translate(268.619301, 289.692069)"><g><path d="M 23.210938 -33.398438 L 0.109375 -33.398438 L 0.109375 -28.332031 L 8.960938 -28.332031 L 8.960938 0 L 14.359375 0 L 14.359375 -28.332031 L 23.210938 -28.332031 Z M 23.210938 -33.398438 "/></g></g></g></svg>