<svg xmlns="http://www.w3.org/2000/svg" xmlns:xlink="http://www.w3.org/1999/xlink" width="500" zoomAndPan="magnify" viewBox="0 0 375 374.999991" height="500" preserveAspectRatio="xMidYMid meet" version="1.0"><defs><clipPath id="4ccd1730e4"><path d="M 6.066406 57 L 182 57 L 182 317 L 6.066406 317 Z M 6.066406 57 " clip-rule="nonzero"/></clipPath><clipPath id="57a34f6735"><path d="M 193 57 L 369.066406 57 L 369.066406 317 L 193 317 Z M 193 57 " clip-rule="nonzero"/></clipPath></defs><rect x="-37.5" width="450" fill="#ffffff" y="-37.499999" height="449.999989" fill-opacity="1"/><rect x="-37.5" width="450" fill="#ffffff" y="-37.499999" height="449.999989" fill-opacity="1"/><rect x="-37.5" width="450" fill="#060644" y="-37.499999" height="449.999989" fill-opacity="1"/><g clip-path="url(#4ccd1730e4)"><path fill="#75e6da" d="M 130.371094 92.214844 C 136.660156 92.214844 141.980469 95.835938 144.15625 101.152344 L 180.917969 101.152344 L 180.917969 92.214844 C 180.917969 74.101562 167.132812 58.644531 148.996094 57.679688 C 135.210938 57.195312 123.359375 65.167969 118.039062 76.757812 C 117.070312 78.933594 114.410156 79.898438 112.234375 79.898438 C 93.613281 79.898438 78.617188 94.871094 78.617188 113.46875 C 78.617188 115.15625 78.617188 116.605469 79.101562 117.816406 C 79.585938 122.160156 77.410156 126.265625 73.296875 127.957031 C 71.605469 128.683594 70.398438 129.648438 68.703125 130.613281 L 32.910156 130.613281 C 30.492188 125.542969 26.625 121.679688 20.578125 121.679688 C 12.597656 121.679688 6.066406 128.199219 6.066406 136.167969 C 6.066406 144.140625 12.597656 150.660156 20.578125 150.660156 C 26.382812 150.660156 30.492188 146.554688 32.910156 141.722656 L 138.113281 141.722656 C 140.289062 136.894531 145.609375 133.269531 151.414062 133.269531 C 159.394531 133.269531 166.40625 139.550781 166.40625 147.761719 C 166.40625 155.730469 159.394531 162.25 151.414062 162.25 C 145.609375 162.25 140.289062 158.628906 138.113281 153.800781 L 49.355469 153.800781 C 46.695312 159.113281 45.730469 164.910156 45.730469 170.945312 C 45.730469 184.710938 52.015625 196.546875 61.691406 205 C 62.175781 205.480469 62.65625 206.6875 63.382812 207.171875 L 37.265625 207.171875 C 35.089844 202.34375 29.769531 198.71875 23.480469 198.71875 C 15.5 198.71875 8.96875 205 8.96875 213.210938 C 8.96875 221.179688 15.257812 227.699219 23.480469 227.699219 C 29.769531 227.699219 35.089844 224.078125 37.265625 219.246094 L 125.777344 219.246094 C 127.953125 213.933594 132.789062 210.3125 139.078125 210.3125 C 147.058594 210.3125 153.589844 216.589844 153.589844 224.800781 C 153.589844 233.253906 147.300781 239.777344 139.078125 239.777344 C 133.273438 239.777344 127.953125 236.152344 125.777344 230.839844 L 64.835938 230.839844 C 65.800781 247.988281 76.441406 262.234375 90.953125 269.722656 C 94.097656 271.414062 97.242188 274.070312 98.449219 277.691406 C 101.109375 285.179688 106.429688 291.457031 113.445312 295.804688 C 116.105469 297.496094 118.765625 299.425781 120.457031 302.085938 C 127.46875 311.746094 138.59375 317.539062 151.414062 315.851562 C 168.582031 314.160156 181.160156 299.425781 181.160156 281.796875 L 181.160156 270.207031 L 137.386719 270.207031 C 135.210938 275.519531 130.371094 279.140625 124.085938 279.140625 C 116.105469 279.140625 109.574219 272.863281 109.574219 264.652344 C 109.574219 256.679688 115.863281 249.675781 124.085938 249.675781 C 129.890625 249.675781 135.210938 253.300781 137.386719 258.613281 L 181.160156 258.613281 L 181.160156 193.164062 L 112.234375 193.164062 C 110.058594 197.996094 104.738281 201.617188 98.933594 201.617188 C 90.953125 201.617188 84.421875 195.339844 84.421875 187.128906 C 84.421875 179.15625 90.710938 172.636719 98.933594 172.636719 C 104.738281 172.636719 110.058594 176.257812 112.234375 181.089844 L 180.917969 181.089844 L 180.917969 112.5 L 144.398438 112.5 C 142.222656 117.816406 136.902344 121.4375 130.613281 121.4375 C 122.632812 121.4375 116.105469 115.15625 116.105469 106.945312 C 116.105469 99.21875 122.390625 92.214844 130.371094 92.214844 Z M 130.371094 92.214844 " fill-opacity="1" fill-rule="nonzero"/></g><g clip-path="url(#57a34f6735)"><path fill="#75e6da" d="M 244.519531 92.214844 C 238.234375 92.214844 232.914062 95.835938 230.734375 101.152344 L 193.976562 101.152344 L 193.976562 92.214844 C 193.976562 74.101562 207.761719 58.644531 225.898438 57.679688 C 239.683594 57.195312 251.535156 65.167969 256.855469 76.757812 C 257.820312 78.933594 260.480469 79.898438 262.660156 79.898438 C 281.28125 79.898438 296.273438 94.871094 296.273438 113.46875 C 296.273438 115.15625 296.273438 116.605469 295.789062 117.816406 C 295.308594 122.160156 297.484375 126.265625 301.59375 127.957031 C 303.289062 128.683594 304.496094 129.648438 306.1875 130.613281 L 342.222656 130.613281 C 344.640625 125.542969 348.511719 121.679688 354.558594 121.679688 C 362.539062 121.679688 369.066406 128.199219 369.066406 136.167969 C 369.066406 144.140625 362.539062 150.660156 354.558594 150.660156 C 348.753906 150.660156 344.640625 146.554688 342.222656 141.722656 L 237.023438 141.722656 C 234.847656 136.894531 229.527344 133.269531 223.722656 133.269531 C 215.742188 133.269531 208.726562 139.550781 208.726562 147.761719 C 208.726562 155.730469 215.742188 162.25 223.722656 162.25 C 229.527344 162.25 234.847656 158.628906 237.023438 153.800781 L 325.535156 153.800781 C 328.195312 159.113281 329.164062 164.910156 329.164062 170.945312 C 329.164062 184.710938 322.875 196.546875 313.203125 205 C 312.71875 205.480469 312.234375 206.6875 311.511719 207.171875 L 337.628906 207.171875 C 339.804688 202.34375 345.125 198.71875 351.414062 198.71875 C 359.394531 198.71875 365.921875 205 365.921875 213.210938 C 365.921875 221.179688 359.636719 227.699219 351.414062 227.699219 C 345.125 227.699219 339.804688 224.078125 337.628906 219.246094 L 249.117188 219.246094 C 246.9375 213.933594 242.101562 210.3125 235.8125 210.3125 C 227.832031 210.3125 221.304688 216.589844 221.304688 224.800781 C 221.304688 233.253906 227.589844 239.777344 235.8125 239.777344 C 241.617188 239.777344 246.9375 236.152344 249.117188 230.839844 L 309.816406 230.839844 C 308.847656 247.988281 298.207031 262.234375 283.699219 269.722656 C 280.554688 271.414062 277.410156 274.070312 276.203125 277.691406 C 273.542969 285.179688 268.21875 291.457031 261.207031 295.804688 C 258.546875 297.496094 255.886719 299.425781 254.195312 302.085938 C 247.179688 311.746094 236.054688 317.539062 223.238281 315.851562 C 206.066406 314.160156 193.492188 299.425781 193.492188 281.796875 L 193.492188 270.207031 L 237.265625 270.207031 C 239.441406 275.519531 244.277344 279.140625 250.566406 279.140625 C 258.546875 279.140625 265.078125 272.863281 265.078125 264.652344 C 265.078125 256.679688 258.789062 249.675781 250.566406 249.675781 C 244.761719 249.675781 239.441406 253.300781 237.265625 258.613281 L 193.492188 258.613281 L 193.492188 193.164062 L 262.175781 193.164062 C 264.351562 197.996094 269.671875 201.617188 275.476562 201.617188 C 283.457031 201.617188 289.984375 195.339844 289.984375 187.128906 C 289.984375 179.15625 283.699219 172.636719 275.476562 172.636719 C 269.671875 172.636719 264.351562 176.257812 262.175781 181.089844 L 193.492188 181.089844 L 193.492188 112.5 L 230.253906 112.5 C 232.429688 117.816406 237.75 121.4375 244.035156 121.4375 C 252.015625 121.4375 258.546875 115.15625 258.546875 106.945312 C 258.789062 99.21875 252.5 92.214844 244.519531 92.214844 Z M 244.519531 92.214844 " fill-opacity="1" fill-rule="nonzero"/></g></svg>